<?xml version="1.0" ?><svg width="24px" height="24px" viewBox="0 0 24 24" xmlns="http://www.w3.org/2000/svg"><title/><g id="signature"><path d="M21.41,4.5a1.91,1.91,0,0,0-3.26-1.35L15.5,5.79,11.85,2.15A.48.48,0,0,0,11.63,2l-.07,0H3.5A1.5,1.5,0,0,0,2,3.5v17A1.5,1.5,0,0,0,3.5,22h11A1.5,1.5,0,0,0,16,20.5V10.71l2.94-2.94a1.63,1.63,0,0,1-.29,1.88l-.5.5a.48.48,0,0,0,0,.7.48.48,0,0,0,.7,0l.5-.5A2.61,2.61,0,0,0,19.67,7l1.18-1.19A1.9,1.9,0,0,0,21.41,4.5Zm-6.26,5.65h0L10.5,14.79,9.21,13.5,17,5.71,18.29,7ZM8.23,17.06l-1.94.65.65-1.94L8.5,14.21,9.79,15.5ZM12,3.71,14.29,6H12ZM15,20.5a.5.5,0,0,1-.5.5H3.5a.5.5,0,0,1-.5-.5V3.5A.5.5,0,0,1,3.5,3H11V6.5a.5.5,0,0,0,.5.5h2.79L6.15,15.15a.39.39,0,0,0-.12.19l-1,3a.48.48,0,0,0,.12.51A.47.47,0,0,0,5.5,19a.45.45,0,0,0,.16,0l3-1a.39.39,0,0,0,.19-.12L15,11.71ZM20.15,5.15,19,6.29,17.71,5l1.14-1.15a.92.92,0,0,1,1.3,1.3Z"/><path d="M5.5,6h3a.5.5,0,0,0,0-1h-3a.5.5,0,0,0,0,1Z"/><path d="M5.5,9h4a.5.5,0,0,0,0-1h-4a.5.5,0,0,0,0,1Z"/><path d="M5.5,12h1a.5.5,0,0,0,0-1h-1a.5.5,0,0,0,0,1Z"/></g></svg>