<?xml version="1.0" encoding="iso-8859-1"?>
<!-- Generator: Adobe Illustrator 19.0.0, SVG Export Plug-In . SVG Version: 6.00 Build 0)  -->
<svg version="1.1" id="Capa_1" xmlns="http://www.w3.org/2000/svg" xmlns:xlink="http://www.w3.org/1999/xlink" x="0px" y="0px"
	 viewBox="0 0 53.242 53.242" style="enable-background:new 0 0 53.242 53.242;" xml:space="preserve">
<g>
	<g>
		<path d="M41,1.121c0-0.122-0.029-0.239-0.071-0.351c-0.008-0.02-0.013-0.04-0.022-0.06c-0.046-0.101-0.108-0.192-0.185-0.274
			c-0.016-0.016-0.032-0.03-0.049-0.046c-0.029-0.026-0.054-0.056-0.085-0.079c-0.058-0.043-0.122-0.076-0.187-0.104
			c-0.006-0.003-0.01-0.007-0.016-0.009c-0.111-0.046-0.229-0.066-0.349-0.07C40.024,0.128,40.013,0.121,40,0.121H6
			c-0.553,0-1,0.448-1,1v50H0v2h6h34h5v-2h-4V1.121z M21,47.301V8.348l18-5.85v48.404L21,47.301z M7,2.121h26.687L19.69,6.67
			C19.279,6.804,19,7.188,19,7.621v40.5c0,0.477,0.337,0.887,0.804,0.98l10.098,2.02H7V2.121z"/>
		<rect x="23" y="29.121" width="3" height="2"/>
		<path d="M52.949,23.414l-4.242-4.243c-0.375-0.375-1.039-0.375-1.414,0l-4.242,4.243c-0.391,0.391-0.391,1.023,0,1.414
			s1.023,0.391,1.414,0L47,22.293v14.828h2V22.293l2.535,2.535c0.195,0.195,0.451,0.293,0.707,0.293s0.512-0.098,0.707-0.293
			C53.34,24.437,53.34,23.805,52.949,23.414z"/>
	</g>
</g>
<g>
</g>
<g>
</g>
<g>
</g>
<g>
</g>
<g>
</g>
<g>
</g>
<g>
</g>
<g>
</g>
<g>
</g>
<g>
</g>
<g>
</g>
<g>
</g>
<g>
</g>
<g>
</g>
<g>
</g>
</svg>
